<svg width="14" height="8" viewBox="0 0 14 8" fill="none" xmlns="http://www.w3.org/2000/svg">
<path d="M13.25 0.46249C13.0158 0.229676 12.699 0.098999 12.3687 0.098999C12.0385 0.098999 11.7217 0.229676 11.4875 0.46249L7 4.88749L2.575 0.46249C2.34079 0.229676 2.02398 0.098999 1.69375 0.098999C1.36351 0.098999 1.0467 0.229676 0.812497 0.46249C0.695336 0.578693 0.602343 0.716945 0.538882 0.869269C0.475422 1.02159 0.442749 1.18497 0.442749 1.34999C0.442749 1.515 0.475422 1.67839 0.538882 1.83071C0.602343 1.98303 0.695336 2.12129 0.812497 2.23749L6.1125 7.53749C6.2287 7.65465 6.36695 7.74764 6.51928 7.8111C6.6716 7.87456 6.83498 7.90724 7 7.90724C7.16501 7.90724 7.32839 7.87456 7.48072 7.8111C7.63304 7.74764 7.77129 7.65465 7.8875 7.53749L13.25 2.23749C13.3672 2.12129 13.4601 1.98303 13.5236 1.83071C13.5871 1.67839 13.6197 1.515 13.6197 1.34999C13.6197 1.18497 13.5871 1.02159 13.5236 0.869269C13.4601 0.716945 13.3672 0.578693 13.25 0.46249Z" fill="#121317"/>
</svg>